<svg xmlns="http://www.w3.org/2000/svg" width="26" height="27" viewBox="0 0 26 27" fill="none">
  <path d="M21.925 9.67505H6.625V10.95H21.925V9.67505Z" fill="#666767"/>
  <path fill-rule="evenodd" clip-rule="evenodd" d="M6.625 21.15C6.625 22.5525 7.7725 23.7 9.175 23.7C10.5775 23.7 11.725 22.5525 11.725 21.15C11.725 19.7475 10.5775 18.6 9.175 18.6C7.7725 18.6 6.625 19.7475 6.625 21.15ZM7.90004 21.15C7.90004 20.385 8.41004 19.875 9.17504 19.875C9.94004 19.875 10.45 20.385 10.45 21.15C10.45 21.915 9.94004 22.425 9.17504 22.425C8.41004 22.425 7.90004 21.915 7.90004 21.15Z" fill="#666767"/>
  <path fill-rule="evenodd" clip-rule="evenodd" d="M16.8252 21.15C16.8252 22.5525 17.9727 23.7 19.3752 23.7C20.7777 23.7 21.9252 22.5525 21.9252 21.15C21.9252 19.7475 20.7777 18.6 19.3752 18.6C17.9727 18.6 16.8252 19.7475 16.8252 21.15ZM18.1003 21.15C18.1003 20.385 18.6103 19.875 19.3753 19.875C20.1403 19.875 20.6503 20.385 20.6503 21.15C20.6503 21.915 20.1403 22.425 19.3753 22.425C18.6103 22.425 18.1003 21.915 18.1003 21.15Z" fill="#666767"/>
  <path d="M20.5229 17.325H8.02789L4.58539 5.84995H1.52539V4.57495H5.60539L9.04789 16.05H19.5029L21.9254 8.27245L23.2004 8.52745L20.5229 17.325Z" fill="#666767"/>
</svg>