<svg width="20" height="11" viewBox="0 0 20 11" fill="none" xmlns="http://www.w3.org/2000/svg">
<path d="M17.244 9.0719C17.132 9.0399 17.02 8.9839 16.908 8.9039C16.796 8.8239 16.68 8.7319 16.56 8.6279C16.464 8.49991 16.396 8.3839 16.356 8.2799C16.316 8.1679 16.292 8.0399 16.284 7.8959C16.284 7.7439 16.284 7.5519 16.284 7.3199C16.284 7.2239 16.3 7.0879 16.332 6.9119C16.372 6.7359 16.412 6.5519 16.452 6.3599C16.5 6.1679 16.544 5.9999 16.584 5.8559C16.624 5.7039 16.648 5.6039 16.656 5.5559C16.68 5.4519 16.64 5.3919 16.536 5.3759C16.432 5.3599 16.316 5.3559 16.188 5.3639C16.068 5.3639 15.988 5.3519 15.948 5.3279C15.916 5.3199 15.9 5.2799 15.9 5.2079C15.9 5.1279 15.9 5.0879 15.9 5.0879C15.9 5.0559 15.884 5.0359 15.852 5.0279C15.82 5.0119 15.792 4.9839 15.768 4.9439C15.752 4.9119 15.772 4.8519 15.828 4.7639C15.884 4.6759 15.956 4.6239 16.044 4.6079C16.116 4.5919 16.224 4.5799 16.368 4.5719C16.512 4.5559 16.656 4.5279 16.8 4.4879C16.952 4.4399 17.068 4.3679 17.148 4.2719C17.22 4.0959 17.3 3.9079 17.388 3.7079C17.476 3.4999 17.56 3.3199 17.64 3.1679C17.72 3.0079 17.776 2.9079 17.808 2.8679C17.944 2.7959 18.084 2.7679 18.228 2.7839C18.372 2.7919 18.484 2.8599 18.564 2.9879C18.604 3.0439 18.636 3.0839 18.66 3.1079C18.692 3.1319 18.704 3.1679 18.696 3.2159C18.696 3.2639 18.664 3.3519 18.6 3.4799C18.544 3.5999 18.448 3.7879 18.312 4.0439C18.272 4.1239 18.236 4.1959 18.204 4.2599C18.172 4.3159 18.156 4.3439 18.156 4.3439C18.188 4.3519 18.236 4.3559 18.3 4.3559C18.364 4.3559 18.444 4.3519 18.54 4.3439C18.628 4.3279 18.724 4.3159 18.828 4.3079C18.932 4.2919 19.024 4.2919 19.104 4.3079C19.288 4.3079 19.424 4.3599 19.512 4.4639C19.6 4.5679 19.648 4.6999 19.656 4.8599C19.672 4.9479 19.64 5.0239 19.56 5.0879C19.48 5.1519 19.332 5.1839 19.116 5.1839C19.044 5.1839 18.94 5.1879 18.804 5.1959C18.668 5.2039 18.528 5.2119 18.384 5.2199C18.24 5.2279 18.116 5.2399 18.012 5.2559C17.916 5.2639 17.868 5.2759 17.868 5.2919C17.844 5.3079 17.804 5.3719 17.748 5.4839C17.7 5.5879 17.648 5.7159 17.592 5.8679C17.544 6.0199 17.5 6.16391 17.46 6.29991C17.404 6.57191 17.364 6.8359 17.34 7.0919C17.316 7.3479 17.312 7.5719 17.328 7.7639C17.352 7.9479 17.4 8.0799 17.472 8.1599C17.544 8.2319 17.652 8.2319 17.796 8.1599C17.948 8.0799 18.088 7.9879 18.216 7.8839C18.36 7.7639 18.484 7.7279 18.588 7.7759C18.692 7.8159 18.756 7.9039 18.78 8.0399C18.812 8.1679 18.776 8.3079 18.672 8.4599C18.576 8.6119 18.44 8.7399 18.264 8.8439C18.088 8.9479 17.908 9.01991 17.724 9.05991C17.54 9.1079 17.38 9.1119 17.244 9.0719Z" fill="#FF5452"/>
<path d="M12.125 9.07207C11.853 8.96007 11.653 8.84407 11.525 8.72407C11.405 8.59607 11.357 8.48407 11.381 8.38807C11.397 8.34007 11.425 8.29607 11.465 8.25607C11.505 8.21607 11.593 8.20007 11.729 8.20807C11.873 8.20807 12.093 8.24407 12.389 8.31607C12.477 8.31607 12.565 8.31207 12.653 8.30407C12.741 8.29607 12.821 8.28407 12.893 8.26807C12.973 8.25207 13.037 8.23207 13.085 8.20807C13.125 8.19207 13.137 8.17207 13.121 8.14807C13.105 8.11607 13.077 8.08407 13.037 8.05207C13.005 8.01207 12.969 7.98807 12.929 7.98007C12.889 7.96407 12.853 7.95607 12.821 7.95607C12.805 7.91607 12.769 7.87607 12.713 7.83607C12.665 7.79607 12.605 7.75207 12.533 7.70407C12.357 7.56007 12.197 7.43207 12.053 7.32007C11.909 7.20807 11.853 7.12407 11.885 7.06807C11.885 7.03607 11.885 7.02007 11.885 7.02007C11.885 7.01207 11.885 7.00807 11.885 7.00807C11.829 7.00807 11.777 6.93207 11.729 6.78007C11.681 6.62007 11.657 6.47607 11.657 6.34807C11.657 6.18807 11.689 6.02807 11.753 5.86807C11.825 5.70807 11.913 5.55607 12.017 5.41207C12.129 5.26807 12.241 5.14007 12.353 5.02807C12.505 4.88407 12.665 4.74407 12.833 4.60807C13.009 4.46407 13.197 4.33607 13.397 4.22407C13.605 4.11207 13.833 4.02407 14.081 3.96007C14.193 3.93607 14.321 3.92407 14.465 3.92407C14.609 3.92407 14.713 3.94407 14.777 3.98407C14.841 3.94407 14.921 3.95607 15.017 4.02007C15.113 4.07607 15.209 4.15607 15.305 4.26007C15.401 4.36407 15.473 4.46807 15.521 4.57207C15.521 4.66807 15.517 4.78807 15.509 4.93207C15.509 5.06807 15.501 5.18807 15.485 5.29207C15.469 5.39607 15.433 5.44807 15.377 5.44807C15.377 5.44807 15.365 5.45207 15.341 5.46007C15.325 5.46007 15.317 5.48007 15.317 5.52007C15.317 5.60007 15.257 5.69207 15.137 5.79607C14.985 5.90007 14.841 5.98407 14.705 6.04807C14.569 6.11207 14.465 6.11607 14.393 6.06007C14.345 6.02807 14.301 5.99607 14.261 5.96407C14.221 5.93207 14.185 5.89207 14.153 5.84407C14.153 5.84407 14.141 5.82807 14.117 5.79607C14.101 5.75607 14.093 5.72007 14.093 5.68807C14.093 5.65607 14.105 5.62807 14.129 5.60407C14.153 5.57207 14.165 5.55607 14.165 5.55607C14.277 5.45207 14.361 5.35607 14.417 5.26807C14.481 5.18007 14.525 5.10407 14.549 5.04007C14.573 4.96807 14.585 4.91207 14.585 4.87207C14.585 4.82407 14.573 4.79607 14.549 4.78807C14.533 4.77207 14.493 4.76407 14.429 4.76407C14.389 4.76407 14.301 4.79607 14.165 4.86007C14.037 4.92407 13.901 5.00407 13.757 5.10007C13.613 5.18807 13.501 5.26807 13.421 5.34007C13.389 5.39607 13.365 5.43207 13.349 5.44807C13.341 5.46407 13.321 5.47207 13.289 5.47207C13.289 5.44007 13.269 5.44407 13.229 5.48407C13.189 5.52407 13.141 5.58007 13.085 5.65207C13.029 5.72407 12.973 5.80007 12.917 5.88007C12.861 5.96007 12.817 6.02407 12.785 6.07207C12.777 6.14407 12.757 6.21207 12.725 6.27607C12.701 6.33207 12.693 6.39207 12.701 6.45607C12.709 6.53607 12.749 6.61207 12.821 6.68407C12.893 6.75607 12.997 6.84807 13.133 6.96007C13.413 7.16807 13.621 7.33207 13.757 7.45207C13.901 7.57207 14.001 7.66807 14.057 7.74007C14.113 7.81207 14.149 7.88407 14.165 7.95607C14.301 8.20407 14.317 8.42007 14.213 8.60407C14.109 8.78007 13.949 8.91607 13.733 9.01207C13.653 9.05207 13.513 9.08807 13.313 9.12007C13.113 9.16007 12.901 9.17607 12.677 9.16807C12.461 9.16807 12.277 9.13607 12.125 9.07207Z" fill="#FF5452"/>
<path d="M9.79751 8.75988C9.55751 8.89588 9.30151 8.97588 9.02951 8.99988C8.76551 9.01588 8.51751 8.97988 8.28551 8.89188C8.05351 8.79588 7.86551 8.65588 7.72151 8.47188C7.64151 8.36788 7.56551 8.20388 7.49351 7.97988C7.42151 7.74788 7.40951 7.43588 7.45751 7.04388C7.50551 6.67588 7.61751 6.30388 7.79351 5.92788C7.97751 5.55188 8.20151 5.21988 8.46551 4.93188C8.72951 4.64388 9.01751 4.44788 9.32951 4.34388C9.44151 4.30388 9.55351 4.27588 9.66551 4.25988C9.78551 4.23588 9.94151 4.23188 10.1335 4.24788C10.3175 4.27188 10.4815 4.31988 10.6255 4.39188C10.7695 4.45588 10.8735 4.52788 10.9375 4.60788C11.0655 4.73588 11.1495 4.85988 11.1895 4.97988C11.2295 5.09988 11.2455 5.21588 11.2375 5.32788C11.1975 5.58388 11.0815 5.85988 10.8895 6.15588C10.7055 6.45188 10.4455 6.67188 10.1095 6.81588C9.97351 6.87188 9.81351 6.90788 9.62951 6.92388C9.44551 6.93988 9.19351 6.91588 8.87351 6.85188C8.68151 6.81188 8.55351 6.83188 8.48951 6.91188C8.43351 6.99188 8.40951 7.14788 8.41751 7.37988C8.43351 7.52388 8.46551 7.65188 8.51351 7.76388C8.56951 7.86788 8.66951 7.93988 8.81351 7.97988C8.99751 8.01188 9.12951 8.01588 9.20951 7.99188C9.28951 7.95988 9.38951 7.91588 9.50951 7.85988C9.57351 7.81988 9.63351 7.77588 9.68951 7.72788C9.75351 7.67988 9.81351 7.63188 9.86951 7.58388C9.93351 7.53588 9.98551 7.49988 10.0255 7.47588C10.0655 7.44388 10.1055 7.42388 10.1455 7.41588C10.1855 7.40788 10.2255 7.40388 10.2655 7.40388C10.3535 7.41188 10.4375 7.45988 10.5175 7.54788C10.5975 7.63588 10.6495 7.71988 10.6735 7.79988C10.6735 7.86388 10.6335 7.95588 10.5535 8.07588C10.4735 8.18788 10.3655 8.30788 10.2295 8.43588C10.1015 8.55588 9.95751 8.66388 9.79751 8.75988ZM9.64151 6.08388C9.69751 6.05988 9.77751 6.00388 9.88151 5.91588C9.99351 5.82788 10.0935 5.73588 10.1815 5.63988C10.2695 5.53588 10.3135 5.45588 10.3135 5.39988C10.3135 5.31188 10.2535 5.23588 10.1335 5.17188C10.0215 5.10788 9.87351 5.09588 9.68951 5.13588C9.62551 5.15188 9.54951 5.19588 9.46151 5.26788C9.37351 5.33988 9.28551 5.42388 9.19751 5.51988C9.10951 5.60788 9.03351 5.69588 8.96951 5.78388C8.90551 5.86388 8.86151 5.92788 8.83751 5.97588C8.86951 6.01588 8.93351 6.04788 9.02951 6.07188C9.12551 6.09588 9.22951 6.10788 9.34151 6.10788C9.46151 6.10788 9.56151 6.09988 9.64151 6.08388Z" fill="#FF5452"/>
<path d="M2.43606 9.86394C2.09206 9.63994 1.88806 9.41594 1.82406 9.19194C1.76806 8.96794 1.84806 8.78794 2.06406 8.65194C2.11206 8.61994 2.20406 8.61594 2.34006 8.63994C2.48406 8.66394 2.59206 8.71194 2.66406 8.78394C2.82406 8.92794 3.00406 9.01594 3.20406 9.04794C3.41206 9.08794 3.66406 9.06794 3.96006 8.98794C4.29606 8.88394 4.55206 8.75594 4.72806 8.60394C4.91206 8.44394 5.11606 8.22794 5.34006 7.95594C5.50806 7.73994 5.62406 7.52794 5.68806 7.31994C5.76006 7.11194 5.79206 6.92394 5.78406 6.75594C5.78406 6.57994 5.74406 6.44794 5.66406 6.35994C5.46406 6.07994 5.21606 5.88794 4.92006 5.78394C4.62406 5.67194 4.23606 5.67994 3.75606 5.80794C3.70006 5.81594 3.61606 5.83194 3.50406 5.85594C3.39206 5.87994 3.29206 5.90394 3.20406 5.92794C3.11606 5.94394 3.06806 5.95194 3.06006 5.95194C3.00406 5.96794 2.96006 5.97594 2.92806 5.97594C2.89606 5.97594 2.85606 6.01594 2.80806 6.09594C2.76806 6.16794 2.70406 6.32394 2.61606 6.56394C2.52806 6.79594 2.39606 7.15594 2.22006 7.64394C2.05206 8.13194 1.90806 8.47994 1.78806 8.68794C1.67606 8.88794 1.57606 8.97994 1.48806 8.96394C1.40006 8.93994 1.30006 8.85194 1.18806 8.69994C1.12406 8.58794 1.05206 8.46394 0.972056 8.32794C0.900056 8.19194 0.904056 8.05194 0.984056 7.90794C1.02406 7.83594 1.05606 7.77194 1.08006 7.71594C1.10406 7.65194 1.13606 7.54394 1.17606 7.39194C1.21606 7.27194 1.29206 7.06394 1.40406 6.76794C1.52406 6.46394 1.66406 6.11194 1.82406 5.71194C1.98406 5.30394 2.15206 4.88394 2.32806 4.45194C2.50406 4.01994 2.67206 3.61194 2.83206 3.22794C3.00006 2.84394 3.14006 2.51994 3.25206 2.25594C3.36406 2.00794 3.43206 1.82794 3.45606 1.71594C3.48006 1.60394 3.47206 1.54394 3.43206 1.53594C3.43206 1.49594 3.42006 1.45994 3.39606 1.42794C3.37206 1.38794 3.36406 1.35194 3.37206 1.31994C3.37206 1.28794 3.44006 1.24394 3.57606 1.18794C3.72006 1.13194 3.87206 1.07994 4.03206 1.03194C4.19206 0.98394 4.30806 0.967939 4.38006 0.983939C4.42006 0.983939 4.46806 0.983939 4.52406 0.983939C4.58006 0.975939 4.60806 0.955939 4.60806 0.923939C4.63206 0.923939 4.70806 0.915939 4.83606 0.89994C4.96406 0.883939 5.10406 0.883939 5.25606 0.89994C5.79206 0.94794 6.23206 1.10394 6.57606 1.36794C6.92006 1.62394 7.08806 2.03594 7.08006 2.60394C7.07206 2.73994 7.01606 2.91594 6.91206 3.13194C6.80806 3.34794 6.67606 3.56394 6.51606 3.77994C6.36406 3.99594 6.20006 4.18394 6.02406 4.34394C5.92006 4.43194 5.80806 4.52394 5.68806 4.61994C5.57606 4.70794 5.47606 4.78394 5.38806 4.84794C5.30806 4.90394 5.26806 4.93194 5.26806 4.93194C5.26806 4.93194 5.30006 4.94394 5.36406 4.96794C5.42806 4.99194 5.49606 5.01594 5.56806 5.03994C5.93606 5.17594 6.22406 5.34794 6.43206 5.55594C6.64806 5.76394 6.80006 6.05194 6.88806 6.41994C6.92006 6.53994 6.92006 6.68794 6.88806 6.86394C6.86406 7.03994 6.82806 7.21594 6.78006 7.39194C6.73206 7.55994 6.68006 7.70394 6.62406 7.82394C6.56806 7.87994 6.52406 7.93994 6.49206 8.00394C6.46006 8.05994 6.44406 8.08794 6.44406 8.08794C6.44406 8.10394 6.41206 8.16794 6.34806 8.27994C6.28406 8.38394 6.20806 8.49994 6.12006 8.62794C6.03206 8.75594 5.94806 8.86794 5.86806 8.96394C5.78806 9.02794 5.67206 9.11594 5.52006 9.22794C5.37606 9.34794 5.21606 9.46394 5.04006 9.57594C4.87206 9.68794 4.71206 9.77194 4.56006 9.82794C4.33606 9.92394 4.08406 9.98794 3.80406 10.0199C3.53206 10.0599 3.27206 10.0639 3.02406 10.0319C2.77606 10.0079 2.58006 9.95194 2.43606 9.86394ZM3.30006 4.88394C3.30006 4.88394 3.36406 4.87194 3.49206 4.84794C3.62806 4.81594 3.77606 4.78394 3.93606 4.75194C4.09606 4.71194 4.21606 4.67594 4.29606 4.64394C4.33606 4.61994 4.39206 4.58794 4.46406 4.54794C4.54406 4.50794 4.62406 4.44794 4.70406 4.36794C4.81606 4.26394 4.93606 4.14794 5.06406 4.01994C5.19206 3.88394 5.31606 3.73994 5.43606 3.58794C5.56406 3.43594 5.67206 3.27194 5.76006 3.09594C5.94406 2.80794 6.04406 2.59994 6.06006 2.47194C6.07606 2.34394 6.03206 2.22794 5.92806 2.12394C5.85606 2.03594 5.75606 1.97194 5.62806 1.93194C5.50006 1.88394 5.36006 1.85994 5.20806 1.85994C5.06406 1.85194 4.92406 1.86794 4.78806 1.90794C4.68406 1.93994 4.60406 1.97994 4.54806 2.02794C4.49206 2.06794 4.46406 2.13194 4.46406 2.21994C4.46406 2.29194 4.44006 2.36794 4.39206 2.44794C4.35206 2.51994 4.31206 2.57594 4.27206 2.61594C4.26406 2.67194 4.23606 2.72794 4.18806 2.78394C4.14806 2.83194 4.12806 2.85594 4.12806 2.85594C4.12806 2.88794 4.07606 2.98794 3.97206 3.15594C3.87606 3.31594 3.77206 3.54794 3.66006 3.85194C3.51606 4.19594 3.42006 4.44394 3.37206 4.59594C3.32406 4.74794 3.30006 4.84394 3.30006 4.88394Z" fill="#FF5452"/>
</svg>
