<svg width="31" height="10" viewBox="0 0 31 10" fill="none" xmlns="http://www.w3.org/2000/svg">
<path d="M28.0338 9.144C27.9458 9.176 27.8458 9.192 27.7338 9.192C27.6298 9.2 27.5098 9.152 27.3738 9.048C27.2938 8.96 27.2378 8.868 27.2058 8.772C27.1818 8.676 27.1698 8.528 27.1698 8.328C27.1858 8.208 27.2178 8.036 27.2658 7.812C27.3138 7.58 27.3658 7.34 27.4218 7.092C27.4858 6.836 27.5418 6.608 27.5898 6.408C27.6458 6.2 27.6898 6.06 27.7218 5.988C27.7778 5.796 27.7898 5.676 27.7578 5.628C27.7258 5.58 27.6298 5.552 27.4698 5.544C27.2858 5.536 27.0938 5.624 26.8938 5.808C26.6938 5.992 26.4658 6.284 26.2098 6.684C26.0178 6.98 25.9018 7.224 25.8618 7.416C25.8218 7.6 25.8178 7.728 25.8498 7.8C25.8658 7.832 25.8938 7.852 25.9338 7.86C25.9818 7.86 26.0378 7.848 26.1018 7.824C26.1738 7.8 26.2498 7.768 26.3298 7.728C26.3858 7.696 26.4538 7.664 26.5338 7.632C26.6218 7.592 26.7058 7.556 26.7858 7.524C26.8338 7.524 26.8658 7.552 26.8818 7.608C26.9058 7.664 26.9178 7.732 26.9178 7.812C26.9178 7.844 26.9258 7.904 26.9418 7.992C26.9658 8.08 27.0058 8.14 27.0618 8.172C27.0938 8.204 27.0258 8.272 26.8578 8.376C26.6978 8.472 26.4898 8.592 26.2338 8.736C25.9938 8.792 25.8138 8.82 25.6938 8.82C25.5818 8.82 25.4578 8.768 25.3218 8.664C25.0978 8.528 24.9538 8.276 24.8898 7.908C24.8338 7.54 24.8818 7.132 25.0338 6.684C25.1858 6.324 25.3538 6.016 25.5378 5.76C25.7298 5.496 25.9298 5.256 26.1378 5.04C26.1698 5.008 26.2698 4.944 26.4378 4.848C26.6058 4.752 26.7778 4.676 26.9538 4.62C27.1538 4.556 27.3218 4.532 27.4578 4.548C27.6018 4.556 27.7378 4.604 27.8658 4.692C28.0098 4.724 28.1058 4.72 28.1538 4.68C28.2098 4.64 28.2738 4.528 28.3458 4.344C28.4898 3.944 28.6418 3.54 28.8018 3.132C28.9618 2.716 29.1298 2.296 29.3058 1.872C29.3858 1.72 29.4338 1.604 29.4498 1.524C29.4738 1.436 29.5018 1.376 29.5338 1.344L29.8698 1.236C29.9578 1.212 30.0578 1.252 30.1698 1.356C30.2898 1.46 30.3658 1.56 30.3978 1.656C30.3978 1.728 30.3658 1.888 30.3018 2.136C30.2378 2.376 30.1338 2.664 29.9898 3C29.8618 3.296 29.7338 3.596 29.6058 3.9C29.4858 4.196 29.3698 4.512 29.2578 4.848C29.1698 5.096 29.0898 5.296 29.0178 5.448C28.9458 5.6 28.8978 5.732 28.8738 5.844C28.8258 6.052 28.7658 6.24 28.6938 6.408C28.6298 6.568 28.5858 6.68 28.5618 6.744C28.4578 7.048 28.3778 7.3 28.3218 7.5C28.2658 7.692 28.2298 7.86 28.2138 8.004C28.1978 8.14 28.1938 8.276 28.2018 8.412C28.2098 8.54 28.2258 8.688 28.2498 8.856C28.2498 8.888 28.2258 8.936 28.1778 9C28.1378 9.056 28.0898 9.104 28.0338 9.144Z" fill="#A17E5E"/>
<path d="M21.7462 8.89191C21.4342 8.76391 21.2182 8.55591 21.0982 8.26791C20.9782 7.97991 20.9462 7.59591 21.0022 7.11591C21.0182 6.86791 21.0102 6.70391 20.9782 6.62391C20.9462 6.53591 20.8862 6.45191 20.7982 6.37191C20.7742 6.33991 20.7182 6.28791 20.6302 6.21591C20.5422 6.13591 20.5022 6.07591 20.5102 6.03591C20.5022 5.97991 20.5142 5.91191 20.5462 5.83191C20.5782 5.74391 20.6062 5.69591 20.6302 5.68791C20.6862 5.66391 20.7422 5.63591 20.7982 5.60391C20.8622 5.57191 20.9102 5.56391 20.9422 5.57991C20.9742 5.57991 21.0222 5.59991 21.0862 5.63991C21.1582 5.67991 21.1942 5.71591 21.1942 5.74791C21.2262 5.80391 21.2742 5.77991 21.3382 5.67591C21.4102 5.57191 21.4862 5.43991 21.5662 5.27991C21.6462 5.15191 21.7462 5.03191 21.8662 4.91991C21.9862 4.80791 22.1062 4.70791 22.2262 4.61991C22.3542 4.52391 22.4622 4.45191 22.5502 4.40391C22.5902 4.38791 22.6662 4.36391 22.7782 4.33191C22.8982 4.29991 23.0222 4.27591 23.1502 4.25991C23.2782 4.23591 23.3742 4.22791 23.4382 4.23591C23.5822 4.24391 23.7342 4.30391 23.8942 4.41591C24.0542 4.52791 24.1782 4.63191 24.2662 4.72791C24.3702 4.79991 24.4382 4.91191 24.4702 5.06391C24.5102 5.20791 24.5262 5.35991 24.5182 5.51991C24.5102 5.67991 24.4782 5.81591 24.4222 5.92791C24.3982 6.00791 24.3142 6.11991 24.1702 6.26391C24.0262 6.40791 23.8662 6.54791 23.6902 6.68391C23.5222 6.81191 23.3782 6.89991 23.2582 6.94791C23.1542 6.97191 23.0302 6.99191 22.8862 7.00791C22.7422 7.01591 22.6062 7.01591 22.4782 7.00791C22.3582 6.99191 22.2742 6.97191 22.2262 6.94791C22.1702 6.91591 22.1222 6.92791 22.0822 6.98391C22.0502 7.03191 22.0222 7.16791 21.9982 7.39191C21.9902 7.47991 21.9902 7.55591 21.9982 7.61991C22.0142 7.68391 22.0302 7.73191 22.0462 7.76391C22.1022 7.85991 22.1582 7.93191 22.2142 7.97991C22.2702 8.01991 22.3742 8.03191 22.5262 8.01591C22.6782 7.99991 22.8302 7.90791 22.9822 7.73991C23.1422 7.56391 23.2862 7.42391 23.4142 7.31991C23.4462 7.26391 23.5142 7.22791 23.6182 7.21191C23.7302 7.18791 23.8622 7.19591 24.0142 7.23591C24.1022 7.29191 24.1422 7.37991 24.1342 7.49991C24.1342 7.61991 24.0702 7.79591 23.9422 8.02791C23.9182 8.08391 23.8502 8.16791 23.7382 8.27991C23.6342 8.38391 23.5182 8.49191 23.3902 8.60391C23.2702 8.70791 23.1702 8.78391 23.0902 8.83191C22.8502 8.95991 22.6142 9.01991 22.3822 9.01191C22.1502 9.00391 21.9382 8.96391 21.7462 8.89191ZM22.6342 6.19191C22.7542 6.15991 22.8542 6.12791 22.9342 6.09591C23.0222 6.06391 23.1062 6.01191 23.1862 5.93991C23.2662 5.86791 23.3582 5.75991 23.4622 5.61591C23.4942 5.52791 23.5102 5.45191 23.5102 5.38791C23.5182 5.32391 23.5142 5.28391 23.4982 5.26791C23.4342 5.20391 23.3622 5.18391 23.2822 5.20791C23.2102 5.22391 23.1302 5.26391 23.0422 5.32791C22.9862 5.35191 22.9062 5.40391 22.8022 5.48391C22.7062 5.55591 22.6102 5.63991 22.5142 5.73591C22.4262 5.82391 22.3542 5.90791 22.2982 5.98791C22.2502 6.05991 22.2422 6.10391 22.2742 6.11991C22.2582 6.15191 22.3022 6.17191 22.4062 6.17991C22.5182 6.18791 22.5942 6.19191 22.6342 6.19191Z" fill="#A17E5E"/>
<path d="M18.5292 9.0719C18.4172 9.0399 18.3052 8.9839 18.1932 8.9039C18.0812 8.8239 17.9652 8.7319 17.8452 8.6279C17.7492 8.49991 17.6812 8.3839 17.6412 8.2799C17.6012 8.1679 17.5772 8.0399 17.5692 7.8959C17.5692 7.7439 17.5692 7.5519 17.5692 7.3199C17.5692 7.2239 17.5852 7.0879 17.6172 6.9119C17.6572 6.7359 17.6972 6.5519 17.7372 6.3599C17.7852 6.1679 17.8292 5.9999 17.8692 5.8559C17.9092 5.7039 17.9332 5.6039 17.9412 5.5559C17.9652 5.4519 17.9252 5.3919 17.8212 5.3759C17.7172 5.3599 17.6012 5.3559 17.4732 5.3639C17.3532 5.3639 17.2732 5.3519 17.2332 5.3279C17.2012 5.3199 17.1852 5.2799 17.1852 5.2079C17.1852 5.1279 17.1852 5.0879 17.1852 5.0879C17.1852 5.0559 17.1692 5.0359 17.1372 5.0279C17.1052 5.0119 17.0772 4.9839 17.0532 4.9439C17.0372 4.9119 17.0572 4.8519 17.1132 4.7639C17.1692 4.6759 17.2412 4.6239 17.3292 4.6079C17.4012 4.5919 17.5092 4.5799 17.6532 4.5719C17.7972 4.5559 17.9412 4.5279 18.0852 4.4879C18.2372 4.4399 18.3532 4.3679 18.4332 4.2719C18.5052 4.0959 18.5852 3.9079 18.6732 3.7079C18.7612 3.4999 18.8452 3.3199 18.9252 3.1679C19.0052 3.0079 19.0612 2.9079 19.0932 2.8679C19.2292 2.7959 19.3692 2.7679 19.5132 2.7839C19.6572 2.7919 19.7692 2.8599 19.8492 2.9879C19.8892 3.0439 19.9212 3.0839 19.9452 3.1079C19.9772 3.1319 19.9892 3.1679 19.9812 3.2159C19.9812 3.2639 19.9492 3.3519 19.8852 3.4799C19.8292 3.5999 19.7332 3.7879 19.5972 4.0439C19.5572 4.1239 19.5212 4.1959 19.4892 4.2599C19.4572 4.3159 19.4412 4.3439 19.4412 4.3439C19.4732 4.3519 19.5212 4.3559 19.5852 4.3559C19.6492 4.3559 19.7292 4.3519 19.8252 4.3439C19.9132 4.3279 20.0092 4.3159 20.1132 4.3079C20.2172 4.2919 20.3092 4.2919 20.3892 4.3079C20.5732 4.3079 20.7092 4.3599 20.7972 4.4639C20.8852 4.5679 20.9332 4.6999 20.9412 4.8599C20.9572 4.9479 20.9252 5.0239 20.8452 5.0879C20.7652 5.1519 20.6172 5.1839 20.4012 5.1839C20.3292 5.1839 20.2252 5.1879 20.0892 5.1959C19.9532 5.2039 19.8132 5.2119 19.6692 5.2199C19.5252 5.2279 19.4012 5.2399 19.2972 5.2559C19.2012 5.2639 19.1532 5.2759 19.1532 5.2919C19.1292 5.3079 19.0892 5.3719 19.0332 5.4839C18.9852 5.5879 18.9332 5.7159 18.8772 5.8679C18.8292 6.0199 18.7852 6.16391 18.7452 6.29991C18.6892 6.57191 18.6492 6.8359 18.6252 7.0919C18.6012 7.3479 18.5972 7.5719 18.6132 7.7639C18.6372 7.9479 18.6852 8.0799 18.7572 8.1599C18.8292 8.2319 18.9372 8.2319 19.0812 8.1599C19.2332 8.0799 19.3732 7.9879 19.5012 7.8839C19.6452 7.7639 19.7692 7.7279 19.8732 7.7759C19.9772 7.8159 20.0412 7.9039 20.0652 8.0399C20.0972 8.1679 20.0612 8.3079 19.9572 8.4599C19.8612 8.6119 19.7252 8.7399 19.5492 8.8439C19.3732 8.9479 19.1932 9.01991 19.0092 9.05991C18.8252 9.1079 18.6652 9.1119 18.5292 9.0719Z" fill="#A17E5E"/>
<path d="M15.466 8.98794C15.274 8.98794 15.106 8.88794 14.962 8.68794C14.826 8.47994 14.742 8.23194 14.71 7.94394C14.718 7.87994 14.726 7.78794 14.734 7.66794C14.75 7.54794 14.766 7.42394 14.782 7.29594C14.814 7.14394 14.858 6.94794 14.914 6.70794C14.97 6.46794 15.03 6.22794 15.094 5.98794C15.158 5.73994 15.214 5.52794 15.262 5.35194C15.31 5.16794 15.338 5.05994 15.346 5.02794C15.394 4.91594 15.502 4.88794 15.67 4.94394C15.838 4.99994 15.982 5.11994 16.102 5.30394C16.15 5.36794 16.178 5.44394 16.186 5.53194C16.202 5.61994 16.19 5.74794 16.15 5.91594C16.118 6.08394 16.054 6.33194 15.958 6.65994C15.87 6.97994 15.802 7.23994 15.754 7.43994C15.714 7.63194 15.698 7.83594 15.706 8.05194C15.674 8.41994 15.642 8.67194 15.61 8.80794C15.578 8.93594 15.53 8.99594 15.466 8.98794ZM16.57 4.00794C16.538 4.03194 16.506 4.04394 16.474 4.04394C16.45 4.03594 16.406 4.01194 16.342 3.97194C16.286 3.96394 16.214 3.92794 16.126 3.86394C16.046 3.79194 15.974 3.71994 15.91 3.64794C15.854 3.57594 15.826 3.53194 15.826 3.51594C15.818 3.43594 15.822 3.30794 15.838 3.13194C15.862 2.95594 15.906 2.79194 15.97 2.63994C16.042 2.47994 16.138 2.39594 16.258 2.38794C16.29 2.38794 16.358 2.40394 16.462 2.43594C16.574 2.46794 16.69 2.50794 16.81 2.55594C16.874 2.67594 16.934 2.83194 16.99 3.02394C17.046 3.21594 17.05 3.40394 17.002 3.58794C16.962 3.76394 16.818 3.90394 16.57 4.00794Z" fill="#A17E5E"/>
<path d="M13.3738 8.71188C13.3178 8.69588 13.2298 8.64388 13.1098 8.55588C12.9898 8.46788 12.8818 8.33588 12.7858 8.15988C12.6978 7.98388 12.6578 7.75588 12.6658 7.47588C12.6738 7.23588 12.6898 7.06788 12.7138 6.97188C12.7458 6.86788 12.7338 6.81188 12.6778 6.80388C12.6378 6.79588 12.5578 6.83188 12.4378 6.91188C12.3178 6.99188 12.1618 7.11988 11.9698 7.29588C11.7778 7.47188 11.5458 7.70388 11.2738 7.99188C11.1778 8.07188 11.0698 8.17188 10.9498 8.29188C10.8378 8.40388 10.7218 8.48788 10.6018 8.54388C10.4898 8.59988 10.3898 8.58788 10.3018 8.50788L10.1818 8.39988C10.1258 8.35188 10.0778 8.28788 10.0378 8.20788C9.99776 8.12788 9.98576 8.05988 10.0018 8.00388L10.3378 7.06788C10.4338 6.85988 10.4978 6.70788 10.5298 6.61188C10.5698 6.51588 10.5858 6.45588 10.5778 6.43188C10.5778 6.40788 10.5578 6.39988 10.5178 6.40788C10.4698 6.41588 10.4018 6.45988 10.3138 6.53988C10.2258 6.61188 10.1658 6.67188 10.1338 6.71988C10.1018 6.71988 10.0578 6.75188 10.0018 6.81588C9.95376 6.87988 9.90576 6.93588 9.85776 6.98388C9.80976 7.03188 9.72576 7.12388 9.60576 7.25988C9.48576 7.38788 9.35776 7.52388 9.22176 7.66788C9.11776 7.76388 8.99776 7.89188 8.86176 8.05188C8.72576 8.21188 8.60576 8.35588 8.50176 8.48388C8.39776 8.61188 8.33376 8.67588 8.30976 8.67588C8.16576 8.66788 8.03376 8.61988 7.91376 8.53188C7.80176 8.44388 7.72576 8.33588 7.68576 8.20788C7.63776 8.11988 7.63376 7.95988 7.67376 7.72788C7.71376 7.48788 7.78976 7.10788 7.90176 6.58788C7.93376 6.46788 7.96176 6.36388 7.98576 6.27588C8.01776 6.18788 8.04976 6.09988 8.08176 6.01188C8.11376 5.92388 8.14976 5.82388 8.18976 5.71188C8.23776 5.59988 8.29776 5.46388 8.36976 5.30388C8.40976 5.19188 8.42576 5.08788 8.41776 4.99188C8.40976 4.88788 8.40176 4.80388 8.39376 4.73988C8.39376 4.61988 8.42976 4.52388 8.50176 4.45188C8.58176 4.37988 8.66976 4.33188 8.76576 4.30788C8.86176 4.27588 8.93776 4.26788 8.99376 4.28388C9.21776 4.30788 9.36976 4.38788 9.44976 4.52388C9.52976 4.65988 9.57376 4.79188 9.58176 4.91988C9.58976 5.03988 9.57376 5.14788 9.53376 5.24388C9.49376 5.33988 9.46176 5.41988 9.43776 5.48388L9.30576 5.80788C9.22576 5.99188 9.16576 6.12788 9.12576 6.21588C9.09376 6.29588 9.07376 6.35188 9.06576 6.38388C9.06576 6.40788 9.06576 6.43188 9.06576 6.45588C9.07376 6.47988 9.10976 6.46788 9.17376 6.41988C9.23776 6.37188 9.31376 6.30788 9.40176 6.22788C9.49776 6.13988 9.58576 6.06388 9.66576 5.99988C9.80976 5.87988 9.96176 5.75988 10.1218 5.63988C10.2898 5.51188 10.4538 5.39988 10.6138 5.30388C10.7738 5.20788 10.9058 5.14388 11.0098 5.11188C11.1458 5.13588 11.2698 5.20388 11.3818 5.31588C11.5018 5.42788 11.5778 5.52388 11.6098 5.60388C11.6498 5.72388 11.6538 5.83188 11.6218 5.92788C11.5978 6.02388 11.5778 6.11188 11.5618 6.19188C11.5538 6.22388 11.5378 6.28388 11.5138 6.37188C11.4898 6.45988 11.4658 6.54388 11.4418 6.62388C11.4178 6.69588 11.4058 6.73188 11.4058 6.73188C11.4058 6.73188 11.4298 6.70788 11.4778 6.65988C11.5258 6.61188 11.5898 6.55588 11.6698 6.49188C11.7498 6.41988 11.8298 6.35588 11.9098 6.29988C12.3098 5.99588 12.6258 5.80388 12.8578 5.72388C13.0978 5.63588 13.3018 5.70388 13.4698 5.92788C13.5658 6.01588 13.6258 6.13588 13.6498 6.28788C13.6818 6.43988 13.6978 6.64388 13.6978 6.89988C13.7058 7.00388 13.7138 7.11988 13.7218 7.24788C13.7378 7.37588 13.7538 7.48788 13.7698 7.58388C13.7938 7.67988 13.8138 7.73988 13.8298 7.76388C13.8538 7.79588 13.8978 7.82788 13.9618 7.85988C14.0258 7.88388 14.0858 7.90388 14.1418 7.91988C14.2538 7.97588 14.3138 8.07988 14.3218 8.23188C14.3378 8.37588 14.2818 8.48788 14.1538 8.56788C14.0338 8.63988 13.9058 8.68388 13.7698 8.69988C13.6418 8.71588 13.5098 8.71988 13.3738 8.71188Z" fill="#A17E5E"/>
<path d="M5.46299 8.79601C5.39899 8.73201 5.35099 8.63601 5.31899 8.50801C5.29499 8.38001 5.28699 8.25601 5.29499 8.13601C5.30299 8.00801 5.32299 7.91201 5.35499 7.84801C5.35499 7.78401 5.36299 7.73601 5.37899 7.70401C5.40299 7.66401 5.41099 7.62801 5.40299 7.59601C5.39499 7.56401 5.40299 7.50801 5.42699 7.42801C5.45099 7.34801 5.47499 7.27201 5.49899 7.20001C5.55499 7.07201 5.61899 6.90801 5.69099 6.70801C5.76299 6.50001 5.83499 6.29201 5.90699 6.08401C5.97899 5.86801 6.03899 5.68401 6.08699 5.53201C6.13499 5.37201 6.16299 5.27601 6.17099 5.24401C6.17099 5.14801 6.23499 5.09601 6.36299 5.08801C6.45899 5.05601 6.57499 5.09601 6.71099 5.20801C6.84699 5.32001 6.95499 5.44001 7.03499 5.56801C7.09899 5.63201 7.12299 5.71601 7.10699 5.82001C7.09099 5.92401 7.03899 6.07201 6.95099 6.26401C6.91899 6.32801 6.87899 6.43601 6.83099 6.58801C6.79099 6.73201 6.76299 6.85201 6.74699 6.94801C6.71499 7.01201 6.67499 7.10401 6.62699 7.22401C6.58699 7.33601 6.55099 7.44401 6.51899 7.54801C6.50299 7.58801 6.48699 7.66401 6.47099 7.77601C6.45499 7.88001 6.43499 7.98801 6.41099 8.10001C6.38699 8.21201 6.35499 8.30001 6.31499 8.36401C6.24299 8.69201 6.11499 8.88401 5.93099 8.94001C5.75499 8.99601 5.59899 8.94801 5.46299 8.79601ZM6.75899 3.98401C6.67099 3.92001 6.60299 3.84401 6.55499 3.75601C6.51499 3.66001 6.49099 3.57601 6.48299 3.50401C6.48299 3.43201 6.49099 3.38801 6.50699 3.37201C6.58699 3.28401 6.65499 3.16801 6.71099 3.02401C6.77499 2.88001 6.84299 2.74801 6.91499 2.62801C6.93099 2.60401 6.95099 2.57201 6.97499 2.53201C7.00699 2.48401 7.03899 2.45601 7.07099 2.44801C7.16699 2.38401 7.29899 2.38801 7.46699 2.46001C7.64299 2.53201 7.77099 2.63201 7.85099 2.76001C7.92299 2.91201 7.94299 3.06801 7.91099 3.22801C7.88699 3.38801 7.80299 3.55601 7.65899 3.73201C7.53899 3.89201 7.38699 3.99601 7.20299 4.04401C7.01899 4.08401 6.87099 4.06401 6.75899 3.98401Z" fill="#A17E5E"/>
<path d="M1.32836 9.73202C1.00836 9.65202 0.748359 9.48402 0.548359 9.22802C0.356359 8.98002 0.200359 8.68002 0.0803593 8.32802C0.0723593 8.22402 0.0683594 8.08002 0.0683594 7.89602C0.0763594 7.71202 0.0883594 7.54002 0.104359 7.38002C0.120359 7.22002 0.136359 7.12802 0.152359 7.10402C0.176359 7.08802 0.188359 7.04002 0.188359 6.96002C0.180359 6.92802 0.184359 6.87602 0.200359 6.80402C0.224359 6.72402 0.248359 6.64402 0.272359 6.56402C0.312359 6.46802 0.332359 6.39202 0.332359 6.33602C0.332359 6.27202 0.328359 6.22402 0.320359 6.19202C0.320359 6.19202 0.332359 6.16802 0.356359 6.12002C0.380359 6.06402 0.408359 6.02002 0.440359 5.98802C0.488359 5.94002 0.508359 5.89202 0.500359 5.84402C0.500359 5.79602 0.500359 5.77202 0.500359 5.77202C0.492359 5.74002 0.500359 5.69602 0.524359 5.64002C0.548359 5.58402 0.572359 5.54002 0.596359 5.50802C0.612359 5.49202 0.632359 5.46002 0.656359 5.41202C0.688359 5.35602 0.704359 5.32802 0.704359 5.32802C0.704359 5.30402 0.720359 5.24002 0.752359 5.13602C0.792359 5.03202 0.836359 4.92002 0.884359 4.80002C0.932359 4.67202 0.976359 4.55602 1.01636 4.45202C1.06436 4.34802 1.10036 4.28002 1.12436 4.24802V4.22402C1.15636 4.14402 1.20036 4.06002 1.25636 3.97202C1.26436 3.93202 1.28436 3.86802 1.31636 3.78002C1.34836 3.68402 1.38436 3.59202 1.42436 3.50402C1.51236 3.31202 1.62036 3.09602 1.74836 2.85602C1.88436 2.60802 2.02836 2.36402 2.18036 2.12402C2.33236 1.87602 2.47636 1.65602 2.61236 1.46402C2.75636 1.26402 2.88036 1.11602 2.98436 1.02002C3.12036 0.868018 3.25636 0.760018 3.39236 0.696018C3.53636 0.624018 3.66836 0.648018 3.78836 0.768017C3.84436 0.824018 3.89236 0.908018 3.93236 1.02002C3.97236 1.12402 3.98836 1.22402 3.98036 1.32002C3.98036 1.40802 3.94836 1.45602 3.88436 1.46402C3.82836 1.49602 3.75236 1.58802 3.65636 1.74002C3.56036 1.88402 3.45236 2.05602 3.33236 2.25602C3.22036 2.45602 3.10836 2.66402 2.99636 2.88002C2.88436 3.08802 2.78036 3.27602 2.68436 3.44402C2.58036 3.67602 2.48436 3.88002 2.39636 4.05602C2.30836 4.22402 2.26436 4.30802 2.26436 4.30802C2.25636 4.33202 2.24836 4.35202 2.24036 4.36802C2.23236 4.38402 2.22436 4.40002 2.21636 4.41602C2.09636 4.66402 1.99636 4.89202 1.91636 5.10002C1.83636 5.30002 1.75636 5.51202 1.67636 5.73602C1.62836 5.79202 1.60036 5.84802 1.59236 5.90402C1.58436 5.96002 1.58036 5.98802 1.58036 5.98802C1.56436 5.98002 1.55236 6.00002 1.54436 6.04802C1.53636 6.08802 1.52036 6.13602 1.49636 6.19202C1.45636 6.22402 1.43236 6.27602 1.42436 6.34802C1.41636 6.41202 1.41236 6.47602 1.41236 6.54002C1.35636 6.68402 1.30436 6.86002 1.25636 7.06802C1.20836 7.26802 1.17236 7.46402 1.14836 7.65602C1.13236 7.84002 1.12836 7.98402 1.13636 8.08802C1.15236 8.22402 1.18836 8.34002 1.24436 8.43602C1.30836 8.52402 1.39636 8.59602 1.50836 8.65202C1.59636 8.69202 1.67636 8.72802 1.74836 8.76002C1.82036 8.78402 1.88436 8.79602 1.94036 8.79602C2.00436 8.80402 2.08436 8.80402 2.18036 8.79602C2.28436 8.78002 2.42436 8.75602 2.60036 8.72402H2.58836C2.69236 8.70802 2.80036 8.68802 2.91236 8.66402C3.03236 8.63202 3.14436 8.60402 3.24836 8.58002C3.34436 8.56402 3.43636 8.54802 3.52436 8.53202C3.61236 8.50802 3.68036 8.48802 3.72836 8.47202C3.90436 8.42402 4.04436 8.38402 4.14836 8.35202C4.26036 8.32002 4.33636 8.32002 4.37636 8.35202C4.41636 8.38402 4.46036 8.44402 4.50836 8.53202C4.55636 8.62002 4.56836 8.70002 4.54436 8.77202C4.52836 8.81202 4.44836 8.89202 4.30436 9.01202C4.16036 9.14002 3.99636 9.26402 3.81236 9.38402C3.62836 9.51202 3.46036 9.60002 3.30836 9.64802C3.14836 9.72002 2.93236 9.76802 2.66036 9.79202C2.39636 9.82402 2.14036 9.83202 1.89236 9.81602C1.64436 9.80002 1.45636 9.77202 1.32836 9.73202Z" fill="#A17E5E"/>
</svg>
