<svg width="32" height="32" viewBox="0 0 32 32" fill="none" xmlns="http://www.w3.org/2000/svg">
<path d="M23.9985 7.00025V11.0002M25.9985 9.00025H21.9985M7.99848 21.0002V23.0002M8.99848 22.0002H6.99848M13.9355 19.5002C13.8462 19.1542 13.6658 18.8384 13.4131 18.5856C13.1604 18.3329 12.8445 18.1525 12.4985 18.0632L6.36348 16.4812C6.25881 16.4515 6.16668 16.3885 6.10109 16.3017C6.03549 16.2149 6 16.1091 6 16.0002C6 15.8914 6.03549 15.7856 6.10109 15.6988C6.16668 15.612 6.25881 15.549 6.36348 15.5192L12.4985 13.9362C12.8444 13.8471 13.1602 13.6668 13.4129 13.4143C13.6656 13.1618 13.846 12.8461 13.9355 12.5002L15.5175 6.36525C15.5469 6.26017 15.6099 6.16759 15.6968 6.10164C15.7837 6.0357 15.8899 6 15.999 6C16.1081 6 16.2142 6.0357 16.3012 6.10164C16.3881 6.16759 16.4511 6.26017 16.4805 6.36525L18.0615 12.5002C18.1508 12.8463 18.3311 13.1621 18.5839 13.4149C18.8366 13.6676 19.1524 13.848 19.4985 13.9372L25.6335 15.5182C25.739 15.5473 25.832 15.6103 25.8983 15.6973C25.9646 15.7844 26.0005 15.8908 26.0005 16.0002C26.0005 16.1097 25.9646 16.2161 25.8983 16.3032C25.832 16.3902 25.739 16.4531 25.6335 16.4822L19.4985 18.0632C19.1524 18.1525 18.8366 18.3329 18.5839 18.5856C18.3311 18.8384 18.1508 19.1542 18.0615 19.5002L16.4795 25.6353C16.4501 25.7403 16.3871 25.8329 16.3002 25.8989C16.2132 25.9648 16.1071 26.0005 15.998 26.0005C15.8889 26.0005 15.7827 25.9648 15.6958 25.8989C15.6089 25.8329 15.5459 25.7403 15.5165 25.6353L13.9355 19.5002Z" stroke="currentColor" stroke-width="1.2" stroke-linecap="round" stroke-linejoin="round"/>
</svg>
