<svg width="32" height="32" viewBox="0 0 32 32" fill="none" xmlns="http://www.w3.org/2000/svg">
<path d="M19 25V17C19 16.7348 18.8946 16.4804 18.7071 16.2929C18.5196 16.1053 18.2652 16 18 16H14C13.7348 16 13.4804 16.1053 13.2929 16.2929C13.1054 16.4804 13 16.7348 13 17V25M7 14C6.99993 13.709 7.06333 13.4216 7.18579 13.1577C7.30824 12.8938 7.4868 12.6598 7.709 12.472L14.709 6.47297C15.07 6.16788 15.5274 6.00049 16 6.00049C16.4726 6.00049 16.93 6.16788 17.291 6.47297L24.291 12.472C24.5132 12.6598 24.6918 12.8938 24.8142 13.1577C24.9367 13.4216 25.0001 13.709 25 14V23C25 23.5304 24.7893 24.0391 24.4142 24.4142C24.0391 24.7893 23.5304 25 23 25H9C8.46957 25 7.96086 24.7893 7.58579 24.4142C7.21071 24.0391 7 23.5304 7 23V14Z" stroke="currentColor" stroke-width="1.2" stroke-linecap="round" stroke-linejoin="round"/>
</svg>
