<svg width="28" height="28" viewBox="0 0 28 28" fill="none" xmlns="http://www.w3.org/2000/svg">
<g clip-path="url(#clip0_7_1229)">
<path d="M13.833 16L13.833 6" stroke="black" stroke-linecap="round" stroke-linejoin="round"/>
<path d="M17.167 9.33334L13.8337 6.00001L10.5003 9.33334" stroke="black" stroke-linecap="round" stroke-linejoin="round"/>
<path d="M10 13H6C5.46957 13 4.96086 13.1505 4.58579 13.4184C4.21071 13.6863 4 14.0497 4 14.4286V21.5714C4 21.9503 4.21071 22.3137 4.58579 22.5816C4.96086 22.8495 5.46957 23 6 23H22C22.5304 23 23.0391 22.8495 23.4142 22.5816C23.7893 22.3137 24 21.9503 24 21.5714V14.4286C24 14.0497 23.7893 13.6863 23.4142 13.4184C23.0391 13.1505 22.5304 13 22 13H18" stroke="black" stroke-linecap="round" stroke-linejoin="round"/>
</g>
<defs>
<clipPath id="clip0_7_1229">
<rect width="28" height="28" fill="white"/>
</clipPath>
</defs>
</svg>
