<svg width="19" height="11" viewBox="0 0 19 11" fill="none" xmlns="http://www.w3.org/2000/svg">
<path d="M13.5949 8.63999C13.4749 8.63999 13.3549 8.55199 13.2349 8.37599C13.1149 8.19199 13.0189 7.96799 12.9469 7.70399C12.8829 7.43999 12.8589 7.17999 12.8749 6.92399C12.8749 6.66799 12.8869 6.46399 12.9109 6.31199C12.9429 6.15199 12.9749 5.99599 13.0069 5.84399C13.0309 5.79599 13.0429 5.75599 13.0429 5.72399C13.0509 5.69199 13.0589 5.63999 13.0669 5.56799C13.0829 5.49599 13.1109 5.37599 13.1509 5.20799C13.1829 5.07199 13.2149 4.95999 13.2469 4.87199C13.2869 4.78399 13.3189 4.72399 13.3429 4.69199C13.4389 4.56399 13.5469 4.48799 13.6669 4.46399C13.7869 4.43199 13.8949 4.44399 13.9909 4.49999C14.0949 4.55599 14.1549 4.63999 14.1709 4.75199C14.2189 4.79199 14.2429 4.88399 14.2429 5.02799C14.2509 5.16399 14.2429 5.30799 14.2189 5.45999C14.1949 5.60399 14.1589 5.70799 14.1109 5.77199C14.0949 5.81199 14.0749 5.91599 14.0509 6.08399C14.0349 6.25199 14.0149 6.42799 13.9909 6.61199C13.9749 6.79599 13.9549 6.94399 13.9309 7.05599C13.9069 7.19999 13.9149 7.29199 13.9549 7.33199C14.0029 7.36399 14.0829 7.32799 14.1949 7.22399C14.3149 7.11199 14.4709 6.91599 14.6629 6.63599C14.8229 6.39599 14.9389 6.20799 15.0109 6.07199C15.0909 5.93599 15.1509 5.81199 15.1909 5.69999C15.2389 5.58799 15.2909 5.45599 15.3469 5.30399C15.3869 5.17599 15.4229 5.07199 15.4549 4.99199C15.4949 4.91199 15.5309 4.85599 15.5629 4.82399C15.6509 4.69599 15.7669 4.64399 15.9109 4.66799C16.0629 4.68399 16.1869 4.72399 16.2829 4.78799C16.3789 4.88399 16.4349 5.01599 16.4509 5.18399C16.4749 5.34399 16.4389 5.51999 16.3429 5.71199C16.2789 5.83999 16.2149 5.99199 16.1509 6.16799C16.0949 6.34399 16.0469 6.51999 16.0069 6.69599C15.9749 6.87199 15.9589 7.02399 15.9589 7.15199C15.9589 7.31199 15.9789 7.40799 16.0189 7.43999C16.0669 7.46399 16.1229 7.47599 16.1869 7.47599C16.2829 7.47599 16.3749 7.44399 16.4629 7.37999C16.5509 7.30799 16.6789 7.18399 16.8469 7.00799C16.9189 6.93599 17.0069 6.82799 17.1109 6.68399C17.2149 6.53999 17.3149 6.38799 17.4109 6.22799C17.5149 6.06799 17.5989 5.92799 17.6629 5.80799C17.7349 5.67999 17.7709 5.59999 17.7709 5.56799C17.7709 5.51999 17.8069 5.45199 17.8789 5.36399C17.9269 5.29999 17.9629 5.25199 17.9869 5.21999C18.0189 5.17999 18.0749 5.13999 18.1549 5.09999C18.2189 5.06799 18.2909 5.06399 18.3709 5.08799C18.4509 5.10399 18.5189 5.14399 18.5749 5.20799C18.6149 5.23999 18.6429 5.31999 18.6589 5.44799C18.6829 5.56799 18.6949 5.67599 18.6949 5.77199C18.6709 5.85999 18.6349 5.98399 18.5869 6.14399C18.5389 6.29599 18.4869 6.44399 18.4309 6.58799C18.3829 6.72399 18.3389 6.81599 18.2989 6.86399C18.2669 6.89599 18.2109 6.95599 18.1309 7.04399C18.0509 7.12399 17.9789 7.21199 17.9149 7.30799C17.7149 7.54799 17.5709 7.70399 17.4829 7.77599C17.3949 7.84799 17.3189 7.91599 17.2549 7.97999C17.0869 8.14799 16.8949 8.28399 16.6789 8.38799C16.4629 8.48399 16.2589 8.53999 16.0669 8.55599C15.8749 8.56399 15.7229 8.52799 15.6109 8.44799C15.3629 8.31999 15.2389 8.10399 15.2389 7.79999C15.2389 7.73599 15.2269 7.67999 15.2029 7.63199C15.1869 7.57599 15.1789 7.54799 15.1789 7.54799C15.1469 7.54799 15.1029 7.55599 15.0469 7.57199C14.9989 7.58799 14.9469 7.64399 14.8909 7.73999C14.8189 7.87599 14.6949 8.01599 14.5189 8.15999C14.3509 8.29599 14.1789 8.41199 14.0029 8.50799C13.8269 8.59599 13.6909 8.63999 13.5949 8.63999Z" fill="#30BB7A"/>
<path d="M11.0631 8.75988C10.8231 8.89588 10.5671 8.97588 10.2951 8.99988C10.0311 9.01588 9.78314 8.97988 9.55114 8.89188C9.31914 8.79588 9.13114 8.65588 8.98714 8.47188C8.90714 8.36788 8.83114 8.20388 8.75914 7.97988C8.68714 7.74788 8.67514 7.43588 8.72314 7.04388C8.77114 6.67588 8.88314 6.30388 9.05914 5.92788C9.24314 5.55188 9.46714 5.21988 9.73114 4.93188C9.99514 4.64388 10.2831 4.44788 10.5951 4.34388C10.7071 4.30388 10.8191 4.27588 10.9311 4.25988C11.0511 4.23588 11.2071 4.23188 11.3991 4.24788C11.5831 4.27188 11.7471 4.31988 11.8911 4.39188C12.0351 4.45588 12.1391 4.52788 12.2031 4.60788C12.3311 4.73588 12.4151 4.85988 12.4551 4.97988C12.4951 5.09988 12.5111 5.21588 12.5031 5.32788C12.4631 5.58388 12.3471 5.85988 12.1551 6.15588C11.9711 6.45188 11.7111 6.67188 11.3751 6.81588C11.2391 6.87188 11.0791 6.90788 10.8951 6.92388C10.7111 6.93988 10.4591 6.91588 10.1391 6.85188C9.94714 6.81188 9.81914 6.83188 9.75514 6.91188C9.69914 6.99188 9.67514 7.14788 9.68314 7.37988C9.69914 7.52388 9.73114 7.65188 9.77914 7.76388C9.83514 7.86788 9.93514 7.93988 10.0791 7.97988C10.2631 8.01188 10.3951 8.01588 10.4751 7.99188C10.5551 7.95988 10.6551 7.91588 10.7751 7.85988C10.8391 7.81988 10.8991 7.77588 10.9551 7.72788C11.0191 7.67988 11.0791 7.63188 11.1351 7.58388C11.1991 7.53588 11.2511 7.49988 11.2911 7.47588C11.3311 7.44388 11.3711 7.42388 11.4111 7.41588C11.4511 7.40788 11.4911 7.40388 11.5311 7.40388C11.6191 7.41188 11.7031 7.45988 11.7831 7.54788C11.8631 7.63588 11.9151 7.71988 11.9391 7.79988C11.9391 7.86388 11.8991 7.95588 11.8191 8.07588C11.7391 8.18788 11.6311 8.30788 11.4951 8.43588C11.3671 8.55588 11.2231 8.66388 11.0631 8.75988ZM10.9071 6.08388C10.9631 6.05988 11.0431 6.00388 11.1471 5.91588C11.2591 5.82788 11.3591 5.73588 11.4471 5.63988C11.5351 5.53588 11.5791 5.45588 11.5791 5.39988C11.5791 5.31188 11.5191 5.23588 11.3991 5.17188C11.2871 5.10788 11.1391 5.09588 10.9551 5.13588C10.8911 5.15188 10.8151 5.19588 10.7271 5.26788C10.6391 5.33988 10.5511 5.42388 10.4631 5.51988C10.3751 5.60788 10.2991 5.69588 10.2351 5.78388C10.1711 5.86388 10.1271 5.92788 10.1031 5.97588C10.1351 6.01588 10.1991 6.04788 10.2951 6.07188C10.3911 6.09588 10.4951 6.10788 10.6071 6.10788C10.7271 6.10788 10.8271 6.09988 10.9071 6.08388Z" fill="#30BB7A"/>
<path d="M1.32035 10.0201C1.16035 9.93207 1.05235 9.82807 0.996352 9.70807C0.940352 9.58807 0.916352 9.45607 0.924352 9.31207C0.940352 9.16807 0.968352 9.02007 1.00835 8.86807C1.07235 8.61207 1.14035 8.40007 1.21235 8.23207C1.29235 8.05607 1.36835 7.87607 1.44035 7.69207C1.52035 7.50007 1.58835 7.25607 1.64435 6.96007C1.77235 6.66407 1.88435 6.38407 1.98035 6.12007C2.08435 5.85607 2.16435 5.64007 2.22035 5.47207C2.27635 5.30407 2.30435 5.22007 2.30435 5.22007C2.31235 5.18807 2.34435 5.10407 2.40035 4.96807C2.46435 4.83207 2.54035 4.66807 2.62835 4.47607C2.72435 4.27607 2.81635 4.07607 2.90435 3.87607C3.04035 3.49207 3.16835 3.16807 3.28835 2.90407C3.40835 2.63207 3.52835 2.38807 3.64835 2.17207C3.77635 1.95607 3.91235 1.74007 4.05635 1.52407C4.15235 1.35607 4.28835 1.25607 4.46435 1.22407C4.64035 1.19207 4.80835 1.21207 4.96835 1.28407C5.12835 1.34807 5.23235 1.46007 5.28035 1.62007C5.32035 1.70007 5.35235 1.79207 5.37635 1.89607C5.40835 2.00007 5.43635 2.15607 5.46035 2.36407C5.49235 2.56407 5.51235 2.85607 5.52035 3.24007C5.53635 3.69607 5.54435 4.11607 5.54435 4.50007C5.55235 4.87607 5.56835 5.22407 5.59235 5.54407C5.62435 5.86407 5.67635 6.15607 5.74835 6.42007C5.77235 6.56407 5.79635 6.74007 5.82035 6.94807C5.84435 7.14807 5.86835 7.34807 5.89235 7.54807C5.92435 7.74807 5.95635 7.91607 5.98835 8.05207C6.02035 8.18007 6.05235 8.24407 6.08435 8.24407C6.12435 8.24407 6.16835 8.21207 6.21635 8.14807C6.27235 8.07607 6.34435 7.92807 6.43235 7.70407C6.52035 7.48007 6.63235 7.13607 6.76835 6.67207C6.90435 6.20807 7.06835 5.58407 7.26035 4.80007C7.30035 4.66407 7.35235 4.44407 7.41635 4.14007C7.48835 3.83607 7.54035 3.52807 7.57235 3.21607C7.62835 3.01607 7.68435 2.79607 7.74035 2.55607C7.79635 2.31607 7.84435 2.10407 7.88435 1.92007C7.93235 1.73607 7.95635 1.63207 7.95635 1.60807C7.95635 1.55207 7.95635 1.50407 7.95635 1.46407C7.96435 1.42407 7.96435 1.38407 7.95635 1.34407C7.99635 1.34407 8.03235 1.29207 8.06435 1.18807C8.09635 1.07607 8.11235 0.980067 8.11235 0.900067C8.11235 0.764067 8.12835 0.656066 8.16035 0.576067C8.20035 0.488066 8.24035 0.424066 8.28035 0.384066C8.36835 0.224066 8.48035 0.144066 8.61635 0.144066C8.76035 0.136066 8.89235 0.176066 9.01235 0.264066C9.13235 0.344066 9.20435 0.444066 9.22835 0.564067C9.24435 0.652067 9.22035 0.852066 9.15635 1.16407C9.10035 1.46807 9.01235 1.88007 8.89235 2.40007C8.89235 2.48807 8.86835 2.63207 8.82035 2.83207C8.77235 3.03207 8.72035 3.24407 8.66435 3.46807C8.61635 3.69207 8.58035 3.88407 8.55635 4.04407C8.52435 4.25207 8.48835 4.44807 8.44835 4.63207C8.40835 4.80807 8.36835 4.89207 8.32835 4.88407C8.12035 5.78807 7.90035 6.56007 7.66835 7.20007C7.44435 7.83207 7.24435 8.34807 7.06835 8.74807C6.87635 9.18807 6.62835 9.46807 6.32435 9.58807C6.02835 9.71607 5.75235 9.61607 5.49635 9.28807C5.34435 9.08007 5.21635 8.87607 5.11235 8.67607C5.00835 8.47607 4.92435 8.24007 4.86035 7.96807C4.79635 7.69607 4.74035 7.35207 4.69235 6.93607C4.64435 6.60007 4.60035 6.27207 4.56035 5.95207C4.52835 5.62407 4.50435 5.29207 4.48835 4.95607C4.47235 4.61207 4.46835 4.24807 4.47635 3.86407C4.48435 3.40807 4.46435 3.14007 4.41635 3.06007C4.37635 2.98007 4.31635 3.02407 4.23635 3.19207C4.15635 3.36007 4.06435 3.58807 3.96035 3.87607C3.90435 4.03607 3.83635 4.22007 3.75635 4.42807C3.68435 4.62807 3.60835 4.82807 3.52835 5.02807C3.44835 5.22807 3.38035 5.40007 3.32435 5.54407C3.26835 5.68807 3.23235 5.78007 3.21635 5.82007C3.16835 5.91607 3.11235 6.04407 3.04835 6.20407C2.98435 6.35607 2.93235 6.52007 2.89235 6.69607C2.60435 7.44807 2.38835 8.09607 2.24435 8.64007C2.10835 9.17607 2.00835 9.53207 1.94435 9.70807C1.86435 9.93207 1.78835 10.0681 1.71635 10.1161C1.65235 10.1641 1.52035 10.1321 1.32035 10.0201Z" fill="#30BB7A"/>
</svg>
