<svg width="32" height="32" viewBox="0 0 32 32" fill="none" xmlns="http://www.w3.org/2000/svg">
<path d="M24.4 12.3999H10V13.5999H24.4V12.3999Z" fill="#676767"/>
<path fill-rule="evenodd" clip-rule="evenodd" d="M10 23.1998C10 24.5198 11.08 25.5998 12.4 25.5998C13.72 25.5998 14.8 24.5198 14.8 23.1998C14.8 21.8798 13.72 20.7998 12.4 20.7998C11.08 20.7998 10 21.8798 10 23.1998ZM11.2 23.1998C11.2 22.4798 11.68 21.9998 12.4 21.9998C13.12 21.9998 13.6 22.4798 13.6 23.1998C13.6 23.9198 13.12 24.3998 12.4 24.3998C11.68 24.3998 11.2 23.9198 11.2 23.1998Z" fill="#676767"/>
<path fill-rule="evenodd" clip-rule="evenodd" d="M19.5996 23.1998C19.5996 24.5198 20.6796 25.5998 21.9996 25.5998C23.3196 25.5998 24.3996 24.5198 24.3996 23.1998C24.3996 21.8798 23.3196 20.7998 21.9996 20.7998C20.6796 20.7998 19.5996 21.8798 19.5996 23.1998ZM20.7997 23.1998C20.7997 22.4798 21.2797 21.9998 21.9997 21.9998C22.7197 21.9998 23.1997 22.4798 23.1997 23.1998C23.1997 23.9198 22.7197 24.3998 21.9997 24.3998C21.2797 24.3998 20.7997 23.9198 20.7997 23.1998Z" fill="#676767"/>
<path d="M23.0792 19.6001H11.3192L8.07922 8.8001H5.19922V7.6001H9.03922L12.2792 18.4001H22.1192L24.3992 11.0801L25.5992 11.3201L23.0792 19.6001Z" fill="#676767"/>
</svg>
