<svg width="106" height="12" viewBox="0 0 106 12" fill="none" xmlns="http://www.w3.org/2000/svg">
<path d="M70.5011 6.55109C70.5011 9.75109 68.7011 11.3511 65.4011 11.3511C62.1011 11.3511 60.4011 9.65109 60.4011 6.55109V0.95109H64.0011V6.35109C64.0011 7.85109 64.4011 8.55109 65.4011 8.55109C66.4011 8.55109 66.8011 7.95109 66.8011 6.25109V0.95109H70.4011L70.5011 6.55109ZM21.3991 0.95109V3.55109H18.3991V11.1511H14.6991V3.55109H11.5991V0.95109H21.3991ZM27.5991 3.25109L26.6991 6.75109H28.4991L27.5991 3.25109ZM29.9991 11.1511L29.3991 9.25109H25.8991L25.1991 11.1511H21.4991L25.1991 0.95109H29.8991L33.5991 11.1511H29.9991ZM82.3031 10.3511L81.2031 7.65109C80.5031 8.25109 79.7031 8.55109 78.8031 8.55109C77.4031 8.55109 76.4031 7.35109 76.4031 6.05109V5.95109C76.3031 4.65109 77.2031 3.45109 78.6031 3.25109H78.8031C79.7031 3.25109 80.6031 3.65109 81.2031 4.25109L82.3031 1.65109C81.0031 0.951091 79.6031 0.651091 78.2031 0.651091C75.3031 0.551091 72.8031 2.85109 72.7031 5.75109C72.6031 8.65109 74.9031 11.1511 77.8031 11.2511H78.3031C79.7031 11.4511 81.1031 11.0511 82.3031 10.3511ZM94.4031 0.95109L91.1031 5.95109L94.8031 11.1511H90.6031L88.3031 7.45109V11.1511H84.7031V0.95109H88.3031V4.65109L90.4031 0.95109H94.4031ZM5.39707 11.3511C7.69707 11.3511 10.0971 10.5511 10.0971 7.95109C10.0971 5.65109 8.09707 4.95109 6.49707 4.65109C5.29707 4.45109 4.79707 4.25109 4.79707 3.85109C4.79707 3.25109 5.59707 3.15109 5.99707 3.15109C6.99707 3.15109 7.99707 3.55109 8.89707 4.05109L9.89707 1.75109C8.59707 1.15109 7.19707 0.851089 5.69707 0.751089C3.29707 0.751089 1.39707 1.95109 1.39707 4.25109C1.39707 6.15109 2.89707 6.95109 4.39707 7.25109C5.49707 7.55109 6.19707 7.65109 6.19707 8.15109C6.19707 8.65109 5.69707 8.85109 5.09707 8.85109C3.99707 8.85109 2.89707 8.45109 2.09707 7.75109L0.99707 9.95109C2.49707 10.8511 3.89707 11.2511 5.39707 11.3511ZM100.303 11.3521C102.603 11.3521 105.003 10.5521 105.003 7.95209C105.003 5.65209 103.003 4.95209 101.403 4.65209C100.203 4.45209 99.7031 4.25209 99.7031 3.85209C99.7031 3.25209 100.503 3.15209 100.903 3.15209C101.903 3.15209 102.903 3.55209 103.803 4.05209L104.803 1.75209C103.503 1.15209 102.103 0.852089 100.603 0.752089C98.2031 0.752089 96.3031 1.95209 96.3031 4.25209C96.3031 6.15209 97.7031 6.95209 99.4031 7.25209C100.503 7.55209 101.203 7.65209 101.203 8.15209C101.203 8.65209 100.603 8.85209 100.103 8.85209C99.0031 8.85209 97.9031 8.45209 97.1031 7.75209L95.9031 9.95209C97.3031 10.8521 98.8031 11.2521 100.303 11.3521ZM43.3001 7.35209C44.5001 6.85209 45.2001 5.75209 45.2001 4.45209C45.2001 2.05209 43.5001 0.952089 41.2001 0.952089H35.7001V11.1521H39.3001V8.15209H40.2001L42.0001 11.1521H45.8001L43.3001 7.35209ZM41.7001 4.45209C41.7001 5.05209 41.3001 5.45209 40.8001 5.55209H39.4001V3.35209H40.7001C41.2001 3.25209 41.7001 3.65209 41.8001 4.25209C41.7001 4.35209 41.7001 4.35209 41.7001 4.45209ZM55.7001 5.95209C56.9001 5.85209 57.8001 4.85209 57.7001 3.65209C57.7001 1.95209 56.4001 0.952089 54.1001 0.952089H48.3001V11.1521H53.9001C56.6001 11.1521 57.9001 10.1521 57.9001 8.25209C58.0001 7.05209 57.0001 6.05209 55.7001 5.95209ZM51.8001 3.15209H53.1001C53.8001 3.15209 54.2001 3.45209 54.2001 4.05209C54.2001 4.65209 53.8001 4.95209 53.1001 4.95209H51.8001V3.15209ZM54.2001 7.95209C54.2001 8.55209 53.8001 8.85209 53.0001 8.85209H51.7001V6.95209H53.0011C53.8011 7.05209 54.2001 7.35209 54.2001 7.95209Z" fill="#02493F"/>
</svg>
