<svg width="24" height="24" viewBox="0 0 11 7" fill="none" xmlns="http://www.w3.org/2000/svg">
<path d="M10.436 6.11097C10.3619 6.11115 10.2884 6.0965 10.2199 6.06789C10.1514 6.03929 10.0892 5.99729 10.0369 5.94432L5.50007 1.36612L0.963225 5.94432C0.910869 5.99716 0.848707 6.0391 0.780279 6.06772C0.711852 6.09634 0.638499 6.11107 0.564418 6.11111C0.490336 6.11115 0.416979 6.09651 0.348522 6.06796C0.280064 6.03942 0.21785 5.99756 0.165438 5.94477C0.113027 5.89199 0.0714414 5.8293 0.0430553 5.76031C0.0146692 5.69133 3.93608e-05 5.61739 7.92869e-08 5.5427C-3.92023e-05 5.46802 0.014518 5.39404 0.0428315 5.32502C0.071145 5.25601 0.112669 5.1933 0.165025 5.14046L5.10097 0.160161C5.20881 0.0573075 5.35162 0 5.50007 0C5.64852 0 5.79133 0.0573075 5.89917 0.160161L10.8351 5.14046C10.9139 5.22003 10.9675 5.32134 10.9892 5.43162C11.0109 5.54191 10.9997 5.65621 10.957 5.76007C10.9143 5.86393 10.842 5.95267 10.7493 6.01513C10.6565 6.07759 10.5475 6.11095 10.436 6.11097Z" fill="black"/>
</svg>
