<svg width="32" height="32" viewBox="0 0 32 32" fill="none" xmlns="http://www.w3.org/2000/svg">
<path fill-rule="evenodd" clip-rule="evenodd" d="M7.59961 14.8C7.59961 18.76 10.8396 22 14.7996 22C18.7596 22 21.9996 18.76 21.9996 14.8C21.9996 10.84 18.7596 7.60001 14.7996 7.60001C10.8396 7.60001 7.59961 10.84 7.59961 14.8ZM8.79964 14.8C8.79964 11.44 11.4396 8.80001 14.7997 8.80001C18.1597 8.80001 20.7997 11.44 20.7997 14.8C20.7997 18.16 18.1597 20.8 14.7997 20.8C11.4396 20.8 8.79964 18.16 8.79964 14.8Z" fill="#666767"/>
<path d="M19.0186 19.8562L19.8671 19.0077L25.3825 24.5231L24.534 25.3716L19.0186 19.8562Z" fill="#666767"/>
</svg>
