<svg width="32" height="32" viewBox="0 0 32 32" fill="none" xmlns="http://www.w3.org/2000/svg">
<path fill-rule="evenodd" clip-rule="evenodd" d="M7.59961 14.8001C7.59961 18.7601 10.8396 22.0001 14.7996 22.0001C18.7596 22.0001 21.9996 18.7601 21.9996 14.8001C21.9996 10.8401 18.7596 7.6001 14.7996 7.6001C10.8396 7.6001 7.59961 10.8401 7.59961 14.8001ZM8.79964 14.8001C8.79964 11.4401 11.4396 8.8001 14.7997 8.8001C18.1597 8.8001 20.7997 11.4401 20.7997 14.8001C20.7997 18.1601 18.1597 20.8001 14.7997 20.8001C11.4396 20.8001 8.79964 18.1601 8.79964 14.8001Z" fill="#676767"/>
<path d="M19.0195 19.8563L19.868 19.0078L25.3834 24.5232L24.5349 25.3717L19.0195 19.8563Z" fill="#676767"/>
</svg>
