<svg width="12" height="8" viewBox="0 0 12 8" fill="none" xmlns="http://www.w3.org/2000/svg">
<path d="M10.936 7.05543C10.8619 7.05561 10.7884 7.04095 10.7199 7.01235C10.6514 6.98375 10.5892 6.94175 10.5369 6.88878L6.00007 2.31058L1.46323 6.88878C1.41087 6.94162 1.34871 6.98356 1.28028 7.01218C1.21185 7.0408 1.1385 7.05553 1.06442 7.05557C0.990336 7.05561 0.916979 7.04097 0.848522 7.01242C0.780064 6.98388 0.71785 6.94201 0.665438 6.88923C0.613027 6.83645 0.571441 6.77376 0.543055 6.70477C0.514669 6.63578 0.500039 6.56185 0.5 6.48716C0.499961 6.41247 0.514518 6.3385 0.542832 6.26948C0.571145 6.20046 0.612669 6.13776 0.665025 6.08492L5.60097 1.10462C5.70881 1.00177 5.85162 0.944458 6.00007 0.944458C6.14852 0.944458 6.29133 1.00177 6.39917 1.10462L11.3351 6.08492C11.4139 6.16449 11.4675 6.2658 11.4892 6.37608C11.5109 6.48637 11.4997 6.60067 11.457 6.70453C11.4143 6.80839 11.342 6.89713 11.2493 6.95959C11.1565 7.02205 11.0475 7.05541 10.936 7.05543Z" fill="#7B7B7B"/>
</svg>
